<?xml version="1.0" encoding="UTF-8" standalone="no"?>
<svg xmlns:dc="http://purl.org/dc/elements/1.1/" xmlns:cc="http://creativecommons.org/ns#" xmlns:rdf="http://www.w3.org/1999/02/22-rdf-syntax-ns#" xmlns:svg="http://www.w3.org/2000/svg" xmlns="http://www.w3.org/2000/svg" xmlns:sodipodi="http://sodipodi.sourceforge.net/DTD/sodipodi-0.dtd" xmlns:inkscape="http://www.inkscape.org/namespaces/inkscape" version="1.1" width="500.89795" height="234.29961" viewBox="0 0 500.89795 234.2996" id="svg2985" inkscape:version="0.48.5 r10040" sodipodi:docname="Formula 1 (white).svg" style="enable-background:new">
  <metadata id="metadata3017">
    <rdf:RDF>
      <cc:Work rdf:about="">
        <dc:format>image/svg+xml</dc:format>
        <dc:type rdf:resource="http://purl.org/dc/dcmitype/StillImage" />
        <dc:title></dc:title>
      </cc:Work>
    </rdf:RDF>
  </metadata>
  <sodipodi:namedview pagecolor="#ffffff" bordercolor="#666666" borderopacity="1" objecttolerance="10" gridtolerance="10" guidetolerance="10" inkscape:pageopacity="0" inkscape:pageshadow="2" inkscape:window-width="1366" inkscape:window-height="706" id="namedview3015" showgrid="false" inkscape:zoom="4.8315789" inkscape:cx="88.074825" inkscape:cy="41.13898" inkscape:window-x="-8" inkscape:window-y="-8" inkscape:window-maximized="1" inkscape:current-layer="svg2985" fit-margin-top="0" fit-margin-left="0" fit-margin-right="0" fit-margin-bottom="0" />
  <defs id="defs2987" />
  <g id="g3019" style="fill:white;stroke:black;stroke-width:0.17512301;stroke-opacity:1" transform="matrix(2.8551361,0,0,2.8551361,-24.893218,-18.290719)">
    <path id="path2989" d="M 66.092,6.508 20.8,71.201 H 44.597 L 57.459,52.824 74.339,52.829 86.608,35.3 69.725,35.32 78.181,23.231 c 14.24,0 24.867,-8.243 33.286,-16.728 L 66.092,6.508 z" style="fill:white;stroke:black;stroke-width:0.17512301;stroke-opacity:1" inkscape:connector-curvature="0" />
    <polygon id="polygon2991" points="117.561,57.058 151.673,54.835 151.789,54.667 116.124,52.374 102.932,71.201 141.936,68.735 142.052,68.575 110.883,66.502 111.002,66.34 145.181,64.107 145.304,63.926 114.171,61.87 114.269,61.698 148.433,59.463 148.544,59.298 117.416,57.23 " style="fill:white;stroke:black;stroke-width:0.17512301;stroke-opacity:1" />
    <polygon id="polygon2993" points="112.718,38.763 164.58,36.417 164.668,36.274 115.859,34.313 115.957,34.171 167.796,31.82 167.894,31.669 119.065,29.73 119.173,29.579 171.015,27.219 171.126,27.061 122.287,25.125 122.402,24.964 174.232,22.637 174.338,22.471 125.502,20.537 125.609,20.386 177.462,18.022 177.574,17.854 128.726,15.932 128.841,15.767 180.672,13.434 180.783,13.278 131.943,11.342 132.053,11.188 183.877,8.849 184,8.686 130.57,6.508 98.127,52.844 154.905,50.216 155.028,50.048 106.198,48.103 106.32,47.931 158.122,45.637 158.233,45.481 109.419,43.511 109.536,43.344 161.361,41.009 161.476,40.851 112.654,38.923 " style="fill:white;stroke:black;stroke-width:0.17512301;stroke-opacity:1" />
    <path id="path2995" d="m 95.218,77.582 c -1.357,1.344 -2.438,2.065 -4.384,2.065 l -1.667,2.321 h 2.497 l -2.354,3.447 h -2.072 l -1.955,2.753 h 8.076 l 1.957,-2.753 h -2.328 l 5.422,-7.833 h -3.192 z" style="fill:white;stroke:black;stroke-width:0.17512301;stroke-opacity:1" inkscape:connector-curvature="0" />
    <polygon id="polygon2997" points="67.338,88.164 74.353,78.137 70.892,78.137 63.877,88.164 " style="fill:white;stroke:black;stroke-width:0.17512301;stroke-opacity:1" />
    <path id="path2999" d="m 57.602,88.377 c 1.242,0 3.615,0.018 5.497,-2.626 0.778,-1.108 3.705,-5.264 3.705,-5.264 h -3.452 c 0,0 -3.001,4.291 -3.271,4.673 -0.88,1.262 -2.047,0.674 -1.49,-0.12 0.301,-0.421 3.191,-4.554 3.191,-4.554 h -3.479 c 0,0 -2.276,3.188 -2.902,4.094 -1.619,2.338 0.109,3.797 2.201,3.797 z" style="fill:white;stroke:black;stroke-width:0.17512301;stroke-opacity:1" inkscape:connector-curvature="0" />
    <path id="path3001" d="M 8.877,88.164 H 12.7 l 2.436,-3.479 h 3.119 l 1.993,-2.845 h -3.124 l 1.511,-2.154 c 2.4,0 3.452,-0.552 5.313,-2.787 h -7.17 L 8.877,88.164 z" style="fill:white;stroke:black;stroke-width:0.17512301;stroke-opacity:1" inkscape:connector-curvature="0" />
    <path id="path3003" d="m 27.207,80.161 c -2.154,0 -4.563,1.348 -5.986,3.438 -1.516,2.223 -1.312,4.75 1.719,4.75 2.936,0 5.388,-1.97 6.472,-3.999 1.317,-2.465 0.561,-4.189 -2.205,-4.189 z m -3.312,5.732 c -1.572,-0.181 1.056,-3.818 2.432,-3.452 1.515,0.403 -1.066,3.615 -2.432,3.452 z" style="fill:white;stroke:black;stroke-width:0.17512301;stroke-opacity:1" inkscape:connector-curvature="0" />
    <path id="path3005" d="m 34.861,84.351 c 0.677,-0.964 2.47,-2.104 3.606,-0.611 l 2.665,-2.66 c 0,0 -0.857,-1.973 -4.325,0.504 l 0.729,-1.097 H 34.11 l -5.375,7.677 h 3.438 c 10e-4,0 2.41,-3.415 2.688,-3.813 z" style="fill:white;stroke:black;stroke-width:0.17512301;stroke-opacity:1" inkscape:connector-curvature="0" />
    <path id="path3007" d="m 47.64,88.16 h 3.375 c 0,0 3.082,-4.375 3.493,-4.972 1.76,-2.541 -1.307,-3.92 -4.16,-1.71 -0.57,-1.844 -2.934,-1.039 -4.583,0.19 l 0.819,-1.167 H 43.166 L 37.8,88.164 h 3.354 c 0,0 2.975,-4.217 3.262,-4.632 0.722,-1.039 2.108,-0.817 1.542,0 -0.269,0.384 -3.239,4.628 -3.239,4.628 l 3.377,0.004 c 0,0 2.961,-4.217 3.253,-4.632 0.724,-1.039 2.122,-0.817 1.554,0 -0.268,0.384 -3.263,4.628 -3.263,4.628 z" style="fill:white;stroke:black;stroke-width:0.17512301;stroke-opacity:1" inkscape:connector-curvature="0" />
    <path id="path3009" d="M 78.795,88.164 84.17,80.5 h -3.502 l -0.477,0.615 c -0.15,-0.398 -0.695,-0.867 -1.663,-0.867 -3.018,0 -5.468,2.215 -6.422,4.343 -0.955,2.122 -0.316,3.762 1.561,3.762 1.18,0 2.219,-0.724 2.585,-0.968 L 75.7,88.163 h 3.095 z m -3.153,-2.196 c -0.78,-0.088 -0.816,-0.866 -0.122,-1.862 0.636,-0.9 1.859,-1.78 2.554,-1.59 1.515,0.402 -1.065,3.594 -2.432,3.452 z" style="fill:white;stroke:black;stroke-width:0.17512301;stroke-opacity:1" inkscape:connector-curvature="0" />
    <polygon id="polygon3011" points="103.373,80.055 103.812,80.055 103.812,77.928 104.61,77.928 104.61,77.548 102.579,77.548 102.579,77.928 103.373,77.928 " style="fill:white;stroke:black;stroke-width:0.17512301;stroke-opacity:1" />
    <polygon id="polygon3013" points="107.078,80.055 107.492,80.055 107.492,77.548 106.883,77.548 106.208,79.519 106.198,79.519 105.508,77.548 104.893,77.548 104.893,80.055 105.305,80.055 105.305,78.127 105.313,78.127 106.013,80.055 106.375,80.055 107.065,78.123 107.078,78.123 " style="fill:white;stroke:black;stroke-width:0.17512301;stroke-opacity:1" />
  </g>
</svg>
